<?xml version="1.0" encoding="utf-8"?>
<!-- Generator: Adobe Illustrator 27.0.0, SVG Export Plug-In . SVG Version: 6.00 Build 0)  -->
<svg version="1.1" id="Layer_1" xmlns="http://www.w3.org/2000/svg" xmlns:xlink="http://www.w3.org/1999/xlink" x="0px" y="0px"
	 viewBox="0 0 40 30" style="enable-background:new 0 0 40 30;" xml:space="preserve">
<style type="text/css">
	.st0{fill:#CF2027;stroke:#010101;stroke-width:0.5;stroke-miterlimit:10;}
</style>
<g>
	<g>
		<ellipse transform="matrix(0.7071 -0.7071 0.7071 0.7071 3.2353 23.4537)" class="st0" cx="29.9" cy="7.8" rx="5.6" ry="5.6"/>
		<path class="st0" d="M39.7,23.3c0,0.7-0.6,1.3-1.3,1.3H27.9c-0.2-0.7-0.5-1.4-0.9-2.1c-0.8-1.3-1.9-2.4-3.3-3
			c-0.7-0.3-1.4-0.6-2.2-0.7c1.4-2,3.7-3.3,6.3-3.3h4C36.2,15.5,39.7,19,39.7,23.3L39.7,23.3z"/>
	</g>
	<g>
		<ellipse transform="matrix(0.2298 -0.9732 0.9732 0.2298 0.1508 15.8218)" class="st0" cx="10.1" cy="7.8" rx="5.6" ry="5.6"/>
		<path class="st0" d="M18.4,18.8c-0.8,0.1-1.5,0.3-2.2,0.7c-1.4,0.7-2.6,1.7-3.3,3c-0.4,0.6-0.7,1.4-0.9,2.1H1.6
			c-0.7,0-1.3-0.6-1.3-1.3c0-4.3,3.5-7.8,7.8-7.8h4C14.7,15.5,17,16.8,18.4,18.8z"/>
	</g>
</g>
<g>
	<ellipse transform="matrix(0.9239 -0.3827 0.3827 0.9239 -2.687 8.491)" class="st0" cx="20" cy="11" rx="5.6" ry="5.6"/>
	<path class="st0" d="M29.8,26.5c0,0.7-0.6,1.3-1.3,1.3H11.5c-0.7,0-1.3-0.6-1.3-1.3c0-0.6,0.1-1.3,0.2-1.9c0.2-0.7,0.5-1.4,0.9-2.1
		c0.8-1.3,1.9-2.4,3.3-3c0.7-0.3,1.4-0.5,2.2-0.7c0.4-0.1,0.8-0.1,1.2-0.1h4c0.4,0,0.8,0,1.2,0.1c0.8,0.1,1.5,0.3,2.2,0.7
		c1.4,0.7,2.6,1.7,3.3,3c0.4,0.6,0.7,1.4,0.9,2.1C29.7,25.2,29.8,25.8,29.8,26.5L29.8,26.5z"/>
</g>
</svg>
